# xmcd
#
# Track frame offsets:
#	150
#	17562
#	32400
#	45557
#	59025
#	71522
#	82045
#	91955
#	110147
#	123585
#	130602
#	146202
#
# Disc length: 2186 seconds
#
# Revision: 0
# Processed by: cddbd v1.5.1PL2 Copyright (c) Steve Scherf et al.
# Submitted via: dBpowerAMP V4.0
#
DISCID=a908880c
DTITLE=Various Artist - Volume IV
DYEAR=1900
DGENRE=Country
TTITLE0=The Lawmen - Big Train from Memphis
TTITLE1=The Lawmen - The Wreck Of Old 97
TTITLE2=The Lawmen - Walkin' After Midnight
TTITLE3=The Lawmen - Life's Railway to Heaven
TTITLE4=The Lawmen - Motel Blues
TTITLE5=The Lawmen - Train 45
TTITLE6=The Lawmen - Boogie Grass Band
TTITLE7=The Lawmen - City of New Orleans
TTITLE8=The Lawmen - Father's Table Grace
TTITLE9=The Lawmen - Walking In Jerusalem
TTITLE10=The Lawmen - A Lonesmone Fugitive
TTITLE11=The Norfolk Southern Lawmen - Streamline Cannonball
EXTD=
EXTT0=
EXTT1=
EXTT2=
EXTT3=
EXTT4=
EXTT5=
EXTT6=
EXTT7=
EXTT8=
EXTT9=
EXTT10=
EXTT11=
PLAYORDER=
